<svg xml:space="preserve" style="max-height: 500px" viewBox="6.656 2.3000000000000003 38.56 42.645833333333336" y="0px" x="0px" xmlns:xlink="http://www.w3.org/1999/xlink" xmlns="http://www.w3.org/2000/svg" id="Layer_1" version="1.1" width="38.56" height="42.645833333333336">
<style type="text/css">
	.st0{fill:url(#SVGID_1_);}
	.st1{fill:url(#SVGID_00000024000627002608773300000014442886742392201384_);}
	.st2{fill:#FFFFFF;}
</style>
<g>
	
		<linearGradient gradientTransform="matrix(1 0 0 -1 0 -516)" y2="-531.7" x2="29.6" y1="-531.7" x1="29.6" gradientUnits="userSpaceOnUse" id="SVGID_1_">
		<stop style="stop-color:#0B25D6" offset="0"/>
		<stop style="stop-color:#00D2FE" offset="0.5276"/>
		<stop style="stop-color:#001896" offset="1"/>
	</linearGradient>
	<path d="M29.6,15.7" class="st0"/>
	<g>
		
			<linearGradient gradientTransform="matrix(1 0 0 1 0 -1307.72)" y2="1333.4467" x2="49.167" y1="1329.0391" x1="2.256" gradientUnits="userSpaceOnUse" id="SVGID_00000024712609713586623510000015052270756040469667_">
			<stop style="stop-color:#0082F8" offset="0"/>
			<stop style="stop-color:#1C40F2" offset="1"/>
		</linearGradient>
		<path d="M22,3.4c2.5-1.4,5.5-1.4,8,0L41.3,10&#xA;&#9;&#9;&#9;c2.4,1.4,3.9,4,3.9,6.8v13.5c0,2.8-1.5,5.4-3.9,6.8L30,43.7c-2.5,1.4-5.5,1.4-8,0l-11.3-6.6c-2.4-1.4-3.9-4-3.9-6.8V16.8&#xA;&#9;&#9;&#9;c0-2.8,1.5-5.4,3.9-6.8L22,3.4z" style="fill:url(#SVGID_00000024712609713586623510000015052270756040469667_);"/>
		<g>
			<g>
				<path d="M33.3,20.6l-0.1-0.1l3.2-3.4h-1.9l-3.8,4.3l1.1,0.3l0.3,0.1c2.1,0.8,3.7,2.7,3.7,5c0,2.9-2.3,5.5-5.2,5.7&#xA;&#9;&#9;&#9;&#9;&#9;c-0.2,0-0.4,0-0.6,0c-2-0.1-3.8-1.4-4.7-3.2c-0.1-0.2-0.2-0.4-0.2-0.6h1.8c0,0.1,0.1,0.1,0.1,0.2c1,1.8,3.3,2.5,5.1,1.5&#xA;&#9;&#9;&#9;&#9;&#9;c1.8-1,2.5-3.3,1.5-5.1s-3.3-2.5-5.1-1.5l0,0l-1.1-1.1l4.9-5.4H19.5v15.1h-2.6v-12h-1.3v11.8V33v0.6H21V18.4h8.2l-3.9,4.3&#xA;&#9;&#9;&#9;&#9;&#9;l3.1,2.8l0.5-0.4L29,25c0.2-0.1,0.4-0.2,0.6-0.3c1.2-0.4,2.5,0.3,2.9,1.5s-0.3,2.5-1.5,2.9s-2.5-0.3-2.9-1.5l0,0l-0.2-0.5h-4.7&#xA;&#9;&#9;&#9;&#9;&#9;c0,0,0,0.2,0.1,0.8c0.1,0.6,0.3,1.3,0.6,1.8c1.1,2.3,3.3,3.9,5.9,4h0.4c0.1,0,0.2,0,0.4,0c3.7-0.2,6.5-3.4,6.5-7.1&#xA;&#9;&#9;&#9;&#9;&#9;C37,24.1,35.6,21.8,33.3,20.6z" class="st2"/>
				<rect height="1.3" width="7.6" class="st2" y="17.1" x="9.5"/>
				<polygon points="9.5,13.3 9.5,14.6 38.7,14.6 39.9,13.3" class="st2"/>
			</g>
			<g>
				<path d="M40.9,15.3c0.4,0,0.8,0.2,1.1,0.5s0.5,0.7,0.5,1.1S42.3,17.7,42,18c-0.3,0.3-0.7,0.5-1.1,0.5&#xA;&#9;&#9;&#9;&#9;&#9;c-0.4,0-0.8-0.2-1.1-0.5s-0.5-0.7-0.5-1.1s0.2-0.8,0.5-1.1C40.1,15.5,40.5,15.3,40.9,15.3z M40.9,18.2c0.4,0,0.7-0.1,0.9-0.4&#xA;&#9;&#9;&#9;&#9;&#9;c0.3-0.3,0.4-0.6,0.4-0.9c0-0.4-0.1-0.7-0.4-0.9c-0.3-0.3-0.6-0.4-0.9-0.4c-0.4,0-0.7,0.1-0.9,0.4c-0.3,0.3-0.4,0.6-0.4,0.9&#xA;&#9;&#9;&#9;&#9;&#9;c0,0.4,0.1,0.7,0.4,0.9C40.2,18.1,40.5,18.2,40.9,18.2z M41.6,17.2c0,0.2-0.1,0.3-0.3,0.4c-0.1,0.1-0.3,0.1-0.5,0.1&#xA;&#9;&#9;&#9;&#9;&#9;s-0.4-0.1-0.6-0.2c-0.1-0.2-0.2-0.4-0.2-0.6c0-0.3,0.1-0.5,0.2-0.6c0.1-0.2,0.3-0.2,0.6-0.2c0.2,0,0.3,0,0.4,0.1&#xA;&#9;&#9;&#9;&#9;&#9;s0.2,0.2,0.3,0.4l-0.2,0.1c-0.1-0.2-0.2-0.3-0.5-0.3c-0.2,0-0.3,0.1-0.4,0.2c-0.1,0.1-0.1,0.3-0.1,0.5s0,0.4,0.1,0.5&#xA;&#9;&#9;&#9;&#9;&#9;s0.2,0.2,0.4,0.2c0.1,0,0.2,0,0.3-0.1s0.2-0.2,0.2-0.3L41.6,17.2z" class="st2"/>
			</g>
		</g>
	</g>
</g>
</svg>